
<svg version="1.1" id="Layer_1" xmlns="http://www.w3.org/2000/svg" xmlns:xlink="http://www.w3.org/1999/xlink" x="0px" y="0px"
	 width="100%" viewBox="0 0 222 227" enable-background="new 0 0 222 227" xml:space="preserve">
<path fill="#FEFEFE" opacity="1.000000" stroke="none" 
	d="
M131.000000,1.000000 
	C161.596268,1.000000 192.192535,1.000000 223.000000,1.000000 
	C223.000000,33.687260 223.000000,66.374969 222.639679,99.394806 
	C221.714600,97.860680 221.149841,95.994423 220.460968,93.718002 
	C213.052017,93.718002 205.606979,93.702347 198.162048,93.720795 
	C170.779633,93.788643 143.397232,93.867805 115.756126,93.901367 
	C115.339920,93.935532 115.182426,94.011032 114.683884,94.325027 
	C114.342834,108.661865 114.342834,122.760208 114.342834,137.385605 
	C134.779160,137.385605 154.688431,137.385605 175.134583,137.385605 
	C172.307770,152.371918 164.244431,163.058121 152.402908,171.641541 
	C139.636612,179.237915 126.289650,183.775269 111.697632,181.966660 
	C103.395439,180.937653 94.841652,179.354965 87.195183,176.135666 
	C69.042534,168.493073 57.649807,154.062454 50.683411,135.556915 
	C45.749451,120.843651 46.274952,106.509232 50.949554,91.860046 
	C62.638676,62.249992 87.274261,45.180798 117.190582,46.104462 
	C132.553558,46.578796 146.001434,52.210014 157.263184,62.482513 
	C168.084091,51.658234 178.736160,41.002827 189.596954,30.138643 
	C174.187943,16.018394 156.296768,6.795925 135.646194,2.925246 
	C134.033829,2.623028 132.545807,1.657333 131.000000,1.000000 
z"/>
<path fill="#EA4336" opacity="1.000000" stroke="none" 
	d="
M130.531342,1.000000 
	C132.545807,1.657333 134.033829,2.623028 135.646194,2.925246 
	C156.296768,6.795925 174.187943,16.018394 189.596954,30.138643 
	C178.736160,41.002827 168.084091,51.658234 157.263184,62.482513 
	C146.001434,52.210014 132.553558,46.578796 117.190582,46.104462 
	C87.274261,45.180798 62.638676,62.249992 50.667961,91.679306 
	C49.117432,91.059464 48.016827,90.331543 46.969662,89.533501 
	C35.713139,80.954933 24.465052,72.365288 13.277521,63.461460 
	C30.904898,30.173721 57.826679,9.821385 94.646515,2.755301 
	C95.511436,2.589311 96.219025,1.603448 97.000000,1.000000 
	C108.020897,1.000000 119.041786,1.000000 130.531342,1.000000 
z"/>
<path fill="#35A854" opacity="1.000000" stroke="none" 
	d="
M50.682228,135.926620 
	C57.649807,154.062454 69.042534,168.493073 87.195183,176.135666 
	C94.841652,179.354965 103.395439,180.937653 111.697632,181.966660 
	C126.289650,183.775269 139.636612,179.237915 152.681091,171.893219 
	C165.225876,181.199005 177.168869,190.399490 188.977142,199.863770 
	C174.006409,213.709152 156.516586,221.780273 136.787567,225.209854 
	C131.522461,226.125092 126.262383,227.069153 121.000000,228.000000 
	C116.643097,228.000000 112.286201,228.000000 107.301376,227.630569 
	C105.531937,227.076569 104.394890,226.856461 103.248268,226.712555 
	C62.546135,221.604416 32.423691,201.155197 13.633417,164.468628 
	C26.189402,154.789841 38.435814,145.358231 50.682228,135.926620 
z"/>
<path fill="#4485F5" opacity="1.000000" stroke="none" 
	d="
M189.111862,199.599976 
	C177.168869,190.399490 165.225876,181.199005 153.004700,171.746857 
	C164.244431,163.058121 172.307770,152.371918 175.134583,137.385605 
	C154.688431,137.385605 134.779160,137.385605 114.342834,137.385605 
	C114.342834,122.760208 114.342834,108.661865 114.789612,94.477005 
	C115.495880,94.241241 115.755356,94.091980 116.014832,93.942719 
	C143.397232,93.867805 170.779633,93.788643 198.162048,93.720795 
	C205.606979,93.702347 213.052017,93.718002 220.460968,93.718002 
	C221.149841,95.994423 221.714600,97.860680 222.639679,99.863464 
	C223.000000,111.354225 223.000000,122.708458 222.627380,134.625244 
	C221.170288,139.823303 220.212494,144.492798 218.979324,149.088379 
	C213.719376,168.690262 204.556992,186.009003 189.111862,199.599976 
z"/>
<path fill="#FABC07" opacity="1.000000" stroke="none" 
	d="
M50.683411,135.556915 
	C38.435814,145.358231 26.189402,154.789841 13.448927,164.154388 
	C9.584183,153.945114 6.233388,143.796204 2.817919,133.669098 
	C2.385680,132.387482 1.614271,131.220230 0.999999,130.000000 
	C1.000000,119.645775 1.000000,109.291542 1.382743,98.380196 
	C2.158682,96.416008 2.483883,94.985672 2.955961,93.605591 
	C6.358833,83.657578 9.791459,73.719742 13.214653,63.778683 
	C24.465052,72.365288 35.713139,80.954933 46.969662,89.533501 
	C48.016827,90.331543 49.117432,91.059464 50.474823,92.000671 
	C46.274952,106.509232 45.749451,120.843651 50.683411,135.556915 
z"/>
<path fill="#FEFEFD" opacity="1.000000" stroke="none" 
	d="
M0.999999,130.468658 
	C1.614271,131.220230 2.385680,132.387482 2.817919,133.669098 
	C6.233388,143.796204 9.584183,153.945114 13.139355,164.401550 
	C32.423691,201.155197 62.546135,221.604416 103.248268,226.712555 
	C104.394890,226.856461 105.531937,227.076569 106.836723,227.630569 
	C71.742592,228.000000 36.485191,228.000000 1.000000,228.000000 
	C1.000000,195.646133 1.000000,163.291718 0.999999,130.468658 
z"/>
<path fill="#FFFEFD" opacity="1.000000" stroke="none" 
	d="
M13.277520,63.461460 
	C9.791459,73.719742 6.358833,83.657578 2.955961,93.605591 
	C2.483883,94.985672 2.158682,96.416008 1.382743,97.911537 
	C1.000000,65.740112 1.000000,33.480228 1.000000,1.000000 
	C32.687222,1.000000 64.374954,1.000000 96.531342,1.000000 
	C96.219025,1.603448 95.511436,2.589311 94.646515,2.755301 
	C57.826679,9.821385 30.904898,30.173721 13.277520,63.461460 
z"/>
<path fill="#FDFEFE" opacity="1.000000" stroke="none" 
	d="
M188.977142,199.863770 
	C204.556992,186.009003 213.719376,168.690262 218.979324,149.088379 
	C220.212494,144.492798 221.170288,139.823303 222.627380,135.093903 
	C223.000000,165.930298 223.000000,196.860611 223.000000,228.000000 
	C189.312729,228.000000 155.625015,228.000000 121.468658,228.000000 
	C126.262383,227.069153 131.522461,226.125092 136.787567,225.209854 
	C156.516586,221.780273 174.006409,213.709152 188.977142,199.863770 
z"/>
<path fill="#367FF5" opacity="1.000000" stroke="none" 
	d="
M115.756126,93.901375 
	C115.755356,94.091980 115.495880,94.241241 115.130669,94.238518 
	C115.182426,94.011032 115.339920,93.935532 115.756126,93.901375 
z"/>
</svg>
